<svg width="120" height="120" viewBox="0 0 120 120" fill="none" xmlns="http://www.w3.org/2000/svg">
  <rect width="120" height="120" rx="60" fill="#113a63"/>
  <path d="M0 0H120V46H0V0Z" fill="#174f85"/>
  <path d="M13 120C17 82 40 66 60 66C80 66 103 82 107 120H13Z" fill="#f0f4f8"/>
  <path d="M36 120C40 86 49 74 60 74C71 74 80 86 84 120H36Z" fill="#18202a"/>
  <circle cx="60" cy="45" r="21" fill="#c78b62"/>
  <path d="M38 48C40 19 78 18 82 48C70 38 52 37 38 48Z" fill="#171717"/>
  <path d="M41 52C43 76 77 76 79 52C72 62 49 62 41 52Z" fill="#b97855"/>
  <path d="M18 0L48 0L22 63H0V24L18 0Z" fill="#56a8d8" opacity=".45"/>
  <path d="M88 0H120V73H104L88 0Z" fill="#e8f5ff" opacity=".25"/>
</svg>
