<svg width="900" height="760" viewBox="0 0 900 760" fill="none" xmlns="http://www.w3.org/2000/svg">
  <rect width="900" height="760" fill="#191a18"/>
  <path d="M0 0H900V308H0V0Z" fill="#2b2c24"/>
  <path d="M96 0L230 270H132L0 68V0H96Z" fill="#7b6b35"/>
  <path d="M536 0L678 308H498L356 0H536Z" fill="#a55634"/>
  <path d="M690 0H900V184L782 308L690 0Z" fill="#8e7b3a"/>
  <circle cx="450" cy="280" r="88" fill="#c58c65"/>
  <path d="M356 282C359 154 548 154 560 283C492 246 420 247 356 282Z" fill="#10100f"/>
  <path d="M380 345C405 398 494 398 522 345C495 374 410 374 380 345Z" fill="#10100f"/>
  <path d="M250 760C270 510 630 510 650 760H250Z" fill="#252525"/>
  <path d="M302 560H598V760H302V560Z" fill="#efefef" opacity=".08"/>
  <text x="230" y="692" fill="#ffffff" font-family="Arial, sans-serif" font-size="36" font-weight="800">DUMMY PORTRAIT</text>
</svg>
