<svg width="900" height="760" viewBox="0 0 900 760" fill="none" xmlns="http://www.w3.org/2000/svg">
  <rect width="900" height="760" fill="#e9e3d8"/>
  <rect x="108" y="90" width="684" height="470" rx="16" fill="#222"/>
  <rect x="142" y="126" width="616" height="390" rx="4" fill="#f5f0e8"/>
  <rect x="180" y="160" width="260" height="40" rx="5" fill="#151515"/>
  <text x="180" y="278" fill="#151515" font-family="Arial, sans-serif" font-size="46" font-weight="800">CEO Advisory</text>
  <text x="180" y="333" fill="#151515" font-family="Arial, sans-serif" font-size="46" font-weight="800">Growth Coach</text>
  <circle cx="594" cy="278" r="82" fill="#e0b48c"/>
  <path d="M534 305C564 354 625 354 657 305C624 286 566 286 534 305Z" fill="#ebe2d3"/>
  <circle cx="594" cy="240" r="38" fill="#e0b48c"/>
  <path d="M548 238C554 186 626 182 643 234C616 224 585 223 548 238Z" fill="#5a3827"/>
  <rect x="316" y="590" width="268" height="28" rx="14" fill="#222"/>
</svg>
